<svg width="30" height="30" viewBox="0 0 30 30" fill="none" xmlns="http://www.w3.org/2000/svg">
<g id="bx:bxs-badge-dollar">
<path id="Vector" d="M2.55876 18.335C2.60076 18.4936 2.67374 18.6423 2.7735 18.7725C2.87327 18.9027 2.99783 19.0119 3.14001 19.0937L5.52751 20.4737V23.2225C5.52751 23.554 5.6592 23.872 5.89362 24.1064C6.12804 24.3408 6.44599 24.4725 6.77751 24.4725H9.52626L10.9063 26.86C11.0169 27.0492 11.1749 27.2063 11.3647 27.3159C11.5545 27.4254 11.7696 27.4837 11.9888 27.485C12.2063 27.485 12.4225 27.4275 12.615 27.3162L15 25.9375L17.3875 27.3175C17.6745 27.483 18.0155 27.5279 18.3356 27.4424C18.6557 27.3569 18.9288 27.1479 19.095 26.8612L20.4738 24.4737H23.2225C23.554 24.4737 23.872 24.342 24.1064 24.1076C24.3408 23.8732 24.4725 23.5553 24.4725 23.2237V20.475L26.86 19.095C27.0022 19.0128 27.1268 18.9034 27.2268 18.773C27.3267 18.6427 27.3999 18.4939 27.4423 18.3352C27.4846 18.1765 27.4953 18.011 27.4737 17.8482C27.4521 17.6853 27.3986 17.5284 27.3163 17.3862L25.9375 15L27.3175 12.615C27.4834 12.328 27.5285 11.987 27.4429 11.6668C27.3574 11.3466 27.1481 11.0735 26.8613 10.9075L24.4738 9.52749V6.77749C24.4738 6.44597 24.3421 6.12803 24.1076 5.8936C23.8732 5.65918 23.5553 5.52749 23.2238 5.52749H20.475L19.0963 3.14124C18.9297 2.85488 18.6572 2.64562 18.3375 2.55874C18.179 2.51576 18.0135 2.50468 17.8506 2.52613C17.6877 2.54759 17.5308 2.60116 17.3888 2.68374L15 4.06249L12.6138 2.68249C12.3268 2.51663 11.9857 2.47152 11.6655 2.55708C11.3453 2.64264 11.0722 2.85186 10.9063 3.13874L9.52626 5.52624H6.77751C6.44599 5.52624 6.12804 5.65793 5.89362 5.89235C5.6592 6.12678 5.52751 6.44472 5.52751 6.77624V9.52499L3.14001 10.905C2.85321 11.0717 2.64416 11.3452 2.55865 11.6657C2.47313 11.9862 2.51812 12.3276 2.68376 12.615L4.06376 15L2.68376 17.385C2.51874 17.6729 2.47383 18.0142 2.55876 18.335ZM15 16.25C10.65 16.25 10 13.9012 10 12.5C10 10.8912 11.2863 9.27124 13.75 8.85624V7.51499H16.25V8.90124C18.4175 9.41374 19.25 11.2175 19.25 12.5H18L16.75 12.5225C16.7325 12.0475 16.4813 11.25 15 11.25C13.3763 11.25 12.5 11.8937 12.5 12.5C12.5 12.9675 12.5 13.75 15 13.75C19.35 13.75 20 16.0987 20 17.5C20 19.1087 18.7138 20.7287 16.25 21.1437V22.5H13.75V21.15C10.8263 20.6912 10 18.6462 10 17.5H12.5C12.5138 17.6787 12.6988 18.75 15 18.75C16.725 18.75 17.5 18.0187 17.5 17.5C17.5 17.0937 17.5 16.25 15 16.25Z" fill="black"/>
</g>
</svg>
