<svg width="29" height="19" viewBox="0 0 29 19" fill="none" xmlns="http://www.w3.org/2000/svg">
<g id="Group 3">
<path id="Vector" d="M18.5649 14.1668C19.3528 14.1668 20.133 14.0116 20.861 13.71C21.589 13.4085 22.2504 12.9666 22.8075 12.4094C23.3647 11.8523 23.8066 11.1908 24.1082 10.4629C24.4097 9.73491 24.5649 8.95469 24.5649 8.16676C24.5649 7.37883 24.4097 6.59862 24.1082 5.87066C23.8066 5.14271 23.3647 4.48127 22.8075 3.92412C22.2504 3.36697 21.589 2.92501 20.861 2.62349C20.133 2.32196 19.3528 2.16676 18.5649 2.16676C16.9736 2.16676 15.4475 2.7989 14.3223 3.92412C13.197 5.04934 12.5649 6.57546 12.5649 8.16676C12.5649 9.75806 13.197 11.2842 14.3223 12.4094C15.4475 13.5346 16.9736 14.1668 18.5649 14.1668ZM24.8849 13.0728L28.4649 16.6528C28.5603 16.7451 28.6364 16.8555 28.6888 16.9775C28.7411 17.0996 28.7686 17.2308 28.7696 17.3636C28.7707 17.4964 28.7453 17.628 28.6949 17.7509C28.6446 17.8737 28.5702 17.9853 28.4763 18.0792C28.3823 18.173 28.2706 18.2472 28.1477 18.2973C28.0247 18.3475 27.8931 18.3728 27.7603 18.3715C27.6275 18.3703 27.4963 18.3426 27.3743 18.2901C27.2524 18.2376 27.1421 18.1613 27.0499 18.0658L23.4699 14.4858C21.8624 15.7336 19.8397 16.3219 17.8136 16.131C15.7876 15.94 13.9105 14.9841 12.5644 13.4578C11.2184 11.9316 10.5046 9.94971 10.5683 7.91569C10.6321 5.88166 11.4686 3.94839 12.9075 2.50941C14.3465 1.07043 16.2798 0.23393 18.3138 0.170189C20.3478 0.106448 22.3297 0.82026 23.856 2.16631C25.3822 3.51237 26.3381 5.38948 26.5291 7.41552C26.7201 9.44156 26.1317 11.4642 24.8839 13.0718L24.8849 13.0728Z" fill="black"/>
<rect id="Rectangle 1" x="0.420349" y="0.16626" width="8.85499" height="2.39923" rx="1.19961" fill="black"/>
<rect id="Rectangle 2" x="0.420349" y="7.60443" width="6.46414" height="2.39923" rx="1.19961" fill="black"/>
<rect id="Rectangle 3" x="0.420349" y="15.043" width="8.85499" height="2.39923" rx="1.19961" fill="black"/>
</g>
</svg>
