<svg width="24" height="25" viewBox="0 0 24 25" fill="none" xmlns="http://www.w3.org/2000/svg">
<g id="store 1">
<path id="Vector" d="M9 9.40226C9.53 9.87726 10.232 10.1663 11 10.1663H13C13.7381 10.1673 14.4505 9.89514 15 9.40226H9ZM9 9.40226C8.45054 9.89514 7.73814 10.1673 7 10.1663L9 9.40226ZM8.05 4.16626V4.11626H8H5C4.72153 4.11626 4.45445 4.22688 4.25754 4.4238C4.06063 4.62071 3.95 4.88778 3.95 5.16626V7.16626C3.95 7.44474 4.06063 7.71181 4.25754 7.90872C4.45445 8.10563 4.72153 8.21626 5 8.21626H7C7.27848 8.21626 7.54555 8.10563 7.74247 7.90872C7.93938 7.71181 8.05 7.44474 8.05 7.16626V4.16626ZM5.01 10.1163H4.96V10.1663V20.1313V20.1813H5.01H7H7.05V20.1313V15.1663C7.05 14.6491 7.25545 14.1531 7.62114 13.7874C7.98684 13.4217 8.48283 13.2163 9 13.2163H11C11.5172 13.2163 12.0132 13.4217 12.3789 13.7874C12.7446 14.1531 12.95 14.6491 12.95 15.1663V20.1313V20.1813H13H19.013H19.063V20.1313V10.1663V10.1163H19.013H17C16.2448 10.1163 15.5545 9.83211 15.0334 9.36503L15 9.3351L14.9666 9.36504C14.4263 9.84968 13.7259 10.1173 13.0001 10.1163H13H11C10.2448 10.1163 9.55454 9.83211 9.03337 9.36503L8.99999 9.3351L8.96662 9.36504C8.42634 9.84968 7.72586 10.1173 7.00007 10.1163H7H5.01ZM3.00817 9.34338C2.71173 9.07261 2.4737 8.74392 2.3089 8.37744C2.13767 7.99667 2.04942 7.58383 2.05 7.16633V7.16626V5.16626C2.05 4.38387 2.36081 3.63353 2.91404 3.08029C3.46727 2.52706 4.21761 2.21626 5 2.21626H19C19.7824 2.21626 20.5327 2.52706 21.086 3.08029C21.6392 3.63353 21.95 4.38387 21.95 5.16626V7.16626C21.95 8.03359 21.5764 8.81429 20.9795 9.35418L20.963 9.36906V9.39126V20.1313C20.963 20.6484 20.7576 21.1444 20.3919 21.5101C20.0262 21.8758 19.5302 22.0813 19.013 22.0813H11.373V22.0804L11.3637 22.0821C11.2438 22.1048 11.122 22.1162 11 22.1163H9C8.87798 22.1162 8.75621 22.1048 8.63629 22.0821L8.63646 22.0813H8.627H5.011C4.49383 22.0813 3.99784 21.8758 3.63214 21.5101C3.26645 21.1444 3.061 20.6484 3.061 20.1313V9.41126V9.29056L3.00817 9.34338ZM11.05 15.1663V15.1163H11H9H8.95V15.1663V20.1313V20.1813H9H11V20.1323H11.05V20.1313V20.0813V15.1663ZM14.05 4.16626V4.11626H14H10H9.95V4.16626V7.16626C9.95 7.44474 10.0606 7.71181 10.2575 7.90872C10.4545 8.10563 10.7215 8.21626 11 8.21626H13C13.2785 8.21626 13.5456 8.10563 13.7425 7.90872C13.9394 7.71181 14.05 7.44474 14.05 7.16626V4.16626ZM16 4.11626H15.95V4.16626V7.16626C15.95 7.44474 16.0606 7.71181 16.2575 7.90872C16.4545 8.10563 16.7215 8.21626 17 8.21626H19C19.2785 8.21626 19.5456 8.10563 19.7425 7.90872C19.9394 7.71181 20.05 7.44474 20.05 7.16626V5.16626C20.05 4.88778 19.9394 4.62071 19.7425 4.4238C19.5456 4.22688 19.2785 4.11626 19 4.11626H16ZM16 13.2163H17C17.252 13.2163 17.4936 13.3163 17.6718 13.4945C17.8499 13.6727 17.95 13.9143 17.95 14.1663V17.1663C17.95 17.4182 17.8499 17.6599 17.6718 17.838C17.4936 18.0162 17.252 18.1163 17 18.1163H16C15.748 18.1163 15.5064 18.0162 15.3283 17.838C15.1501 17.6599 15.05 17.4182 15.05 17.1663V14.1663C15.05 13.9143 15.1501 13.6727 15.3283 13.4945C15.5064 13.3163 15.748 13.2163 16 13.2163Z" fill="#4C55BB" stroke="white" stroke-width="0.1"/>
</g>
</svg>
