<svg width="31" height="30" viewBox="0 0 31 30" fill="none" xmlns="http://www.w3.org/2000/svg">
<g id="ion:trash-sharp">
<path id="Vector" d="M26.686 5.625H20.1499V2.8125C20.1499 2.56386 20.0511 2.3254 19.8753 2.14959C19.6995 1.97377 19.461 1.875 19.2124 1.875H11.7124C11.4638 1.875 11.2253 1.97377 11.0495 2.14959C10.8737 2.3254 10.7749 2.56386 10.7749 2.8125V5.625H4.23877L4.2124 7.96875H6.146L7.32314 26.3672C7.35294 26.843 7.56284 27.2895 7.91017 27.6161C8.25749 27.9426 8.71615 28.1246 9.19287 28.125H21.7319C22.2084 28.1249 22.6669 27.9435 23.0144 27.6175C23.3619 27.2916 23.5723 26.8456 23.6028 26.3701L24.7788 7.96875H26.7124L26.686 5.625ZM10.7749 24.375L10.2476 9.375H12.1812L12.7085 24.375H10.7749ZM16.3999 24.375H14.5249V9.375H16.3999V24.375ZM17.8062 5.625H13.1187V3.98438C13.1187 3.92221 13.1433 3.8626 13.1873 3.81865C13.2313 3.77469 13.2909 3.75 13.353 3.75H17.5718C17.6339 3.75 17.6936 3.77469 17.7375 3.81865C17.7815 3.8626 17.8062 3.92221 17.8062 3.98438V5.625ZM20.1499 24.375H18.2163L18.7437 9.375H20.6772L20.1499 24.375Z" fill="white"/>
</g>
</svg>
